<svg width="40" height="40" viewBox="0 0 40 40" fill="none" xmlns="http://www.w3.org/2000/svg">
<g clip-path="url(#clip0_110_356)">
<path d="M15 35H25C25.442 35 25.8659 34.8244 26.1785 34.5118C26.4911 34.1993 26.6667 33.7754 26.6667 33.3333V27.2917C26.6667 24.9633 27.15 22.6667 28.075 20.5833L28.5917 19.4167C29.5183 17.3333 30 15.6617 30 13.3333V6.66667C30 6.22464 29.8244 5.80072 29.5118 5.48816C29.1993 5.17559 28.7754 5 28.3333 5H11.6667C11.2246 5 10.8007 5.17559 10.4882 5.48816C10.1756 5.80072 10 6.22464 10 6.66667V13.3333C10 15.6617 10.4833 17.3333 11.4083 19.4167L11.925 20.5833C12.8574 22.6967 13.3371 24.9818 13.3333 27.2917V33.3333C13.3333 33.7754 13.5089 34.1993 13.8215 34.5118C14.134 34.8244 14.558 35 15 35Z" stroke="#4C04A9" stroke-width="2.75" stroke-linecap="round" stroke-linejoin="round"/>
<path d="M10 13.3333H30" stroke="#4C04A9" stroke-width="2.75" stroke-linecap="round" stroke-linejoin="round"/>
</g>
<defs>
<clipPath id="clip0_110_356">
<rect width="40" height="40" fill="white"/>
</clipPath>
</defs>
</svg>
