<svg width="40" height="40" viewBox="0 0 40 40" fill="none" xmlns="http://www.w3.org/2000/svg">
<g clip-path="url(#clip0_110_360)">
<path d="M26.6667 30C27.5507 30 28.3986 30.3512 29.0237 30.9763C29.6488 31.6014 30 32.4493 30 33.3333C30 32.4493 30.3512 31.6014 30.9763 30.9763C31.6014 30.3512 32.4493 30 33.3333 30C32.4493 30 31.6014 29.6488 30.9763 29.0237C30.3512 28.3986 30 27.5507 30 26.6667C30 27.5507 29.6488 28.3986 29.0237 29.0237C28.3986 29.6488 27.5507 30 26.6667 30ZM26.6667 9.99999C27.5507 9.99999 28.3986 10.3512 29.0237 10.9763C29.6488 11.6014 30 12.4493 30 13.3333C30 12.4493 30.3512 11.6014 30.9763 10.9763C31.6014 10.3512 32.4493 9.99999 33.3333 9.99999C32.4493 9.99999 31.6014 9.6488 30.9763 9.02368C30.3512 8.39856 30 7.55071 30 6.66666C30 7.55071 29.6488 8.39856 29.0237 9.02368C28.3986 9.6488 27.5507 9.99999 26.6667 9.99999ZM15 30C15 27.3478 16.0536 24.8043 17.9289 22.9289C19.8043 21.0536 22.3478 20 25 20C22.3478 20 19.8043 18.9464 17.9289 17.0711C16.0536 15.1957 15 12.6522 15 9.99999C15 12.6522 13.9464 15.1957 12.0711 17.0711C10.1957 18.9464 7.65217 20 5 20C7.65217 20 10.1957 21.0536 12.0711 22.9289C13.9464 24.8043 15 27.3478 15 30Z" stroke="#4C04A9" stroke-width="2.75" stroke-linecap="round" stroke-linejoin="round"/>
</g>
<defs>
<clipPath id="clip0_110_360">
<rect width="40" height="40" fill="white"/>
</clipPath>
</defs>
</svg>
