<svg width="15" height="13" viewBox="0 0 15 13" fill="none" xmlns="http://www.w3.org/2000/svg">
<path d="M9.0378 0.341618C7.83314 0.852952 7.04114 1.97695 7.00047 3.26162L6.99914 3.38295L6.83714 3.36762C5.24247 3.18829 3.83847 2.35962 2.87447 1.01362C2.80919 0.922396 2.72196 0.849119 2.62083 0.800573C2.51971 0.752027 2.40797 0.729781 2.29597 0.735897C2.18396 0.742012 2.07531 0.776291 1.98007 0.835558C1.88484 0.894825 1.80609 0.977165 1.75114 1.07495L1.68647 1.19895L1.6538 1.26495C1.17447 2.25495 0.860471 3.45829 0.975804 4.73362L0.995804 4.91562C1.18447 6.42428 1.9958 7.72562 3.51514 8.70162L3.63047 8.77295L3.57647 8.80162C2.6998 9.24362 1.8978 9.43629 1.02514 9.40162C0.321138 9.37495 0.0611378 10.3163 0.679804 10.6536C3.07847 11.961 5.6538 12.3643 7.87447 11.7203C10.5811 10.9336 12.6425 8.90495 13.4311 6.09829L13.5158 5.76829C13.6745 5.10629 13.7638 4.43095 13.7831 3.75229L13.7851 3.53095L14.0471 3.01162L14.3405 2.43695L14.4831 2.14762L14.5618 1.98295C14.7385 1.60629 14.8658 1.29429 14.9445 1.02962L14.9538 0.992285L14.9591 0.980285C15.1058 0.584952 14.8485 0.0749517 14.3318 0.0749517L14.2505 0.0796184C14.1978 0.0860924 14.1461 0.0988499 14.0965 0.117618L14.0391 0.142952C13.8489 0.235345 13.6529 0.315508 13.4525 0.382952L13.2151 0.459618L13.0345 0.512952L12.5198 0.655618C11.6291 -0.0897149 10.4238 -0.180382 9.17847 0.286285L9.0378 0.341618Z" fill="#4C04A9"/>
</svg>
