<svg width="41" height="40" viewBox="0 0 41 40" fill="none" xmlns="http://www.w3.org/2000/svg">
<g clip-path="url(#clip0_110_242)">
<path d="M5.84088 35V28.3334C5.84088 27.0148 6.22299 25.7259 6.93888 24.6296C7.65478 23.5332 8.6723 22.6787 9.86279 22.1742C11.0533 21.6696 12.3633 21.5376 13.6271 21.7948C14.8909 22.052 16.0518 22.687 16.9629 23.6193C17.8741 24.5517 18.4946 25.7395 18.746 27.0328C18.9974 28.326 18.8684 29.6664 18.3752 30.8846C17.8821 32.1028 17.0471 33.1439 15.9757 33.8765C14.9042 34.609 13.6446 35 12.356 35H5.84088Z" stroke="#4C04A9" stroke-width="2.75" stroke-linecap="round" stroke-linejoin="round"/>
<path d="M35.1591 5C30.5102 5.65067 26.1193 7.57357 22.4498 10.5657C18.7802 13.5579 15.9682 17.5083 14.3106 22" stroke="#4C04A9" stroke-width="2.75" stroke-linecap="round" stroke-linejoin="round"/>
<path d="M35.159 5C34.5232 9.75697 32.644 14.25 29.7198 18.0049C26.7956 21.7598 22.935 24.6372 18.5454 26.3333" stroke="#4C04A9" stroke-width="2.75" stroke-linecap="round" stroke-linejoin="round"/>
<path d="M18.2197 15C21.3847 16.4948 23.9255 19.0947 25.3863 22.3333" stroke="#4C04A9" stroke-width="2.75" stroke-linecap="round" stroke-linejoin="round"/>
</g>
<defs>
<clipPath id="clip0_110_242">
<rect width="39.0909" height="40" fill="white" transform="translate(0.954529)"/>
</clipPath>
</defs>
</svg>
