<svg width="41" height="40" viewBox="0 0 41 40" fill="none" xmlns="http://www.w3.org/2000/svg">
<g clip-path="url(#clip0_110_363)">
<path d="M5.5 23.3334C6.88333 24.4034 8.96167 25.0284 11.3333 25C13.705 25.0284 15.7833 24.4034 17.1667 23.3334C18.55 22.2634 20.6283 21.6384 23 21.6667C25.3717 21.6384 27.45 22.2634 28.8333 23.3334" stroke="#4C04A9" stroke-width="2.75" stroke-linecap="round" stroke-linejoin="round"/>
<path d="M13.8333 5C13.3058 5.37862 12.8785 5.87995 12.5881 6.46071C12.2977 7.04146 12.1531 7.68417 12.1667 8.33333C12.1531 8.98249 12.2977 9.62521 12.5881 10.206C12.8785 10.7867 13.3058 11.288 13.8333 11.6667" stroke="#4C04A9" stroke-width="2.75" stroke-linecap="round" stroke-linejoin="round"/>
<path d="M20.5 5C19.9725 5.37862 19.5451 5.87995 19.2548 6.46071C18.9644 7.04146 18.8197 7.68417 18.8333 8.33333C18.8197 8.98249 18.9644 9.62521 19.2548 10.206C19.5451 10.7867 19.9725 11.288 20.5 11.6667" stroke="#4C04A9" stroke-width="2.75" stroke-linecap="round" stroke-linejoin="round"/>
<path d="M5.5 16.6667H28.8333V25C28.8333 27.6522 27.7798 30.1957 25.9044 32.0711C24.029 33.9465 21.4855 35 18.8333 35H15.5C12.8478 35 10.3043 33.9465 8.42893 32.0711C6.55357 30.1957 5.5 27.6522 5.5 25V16.6667Z" stroke="#4C04A9" stroke-width="2.75" stroke-linecap="round" stroke-linejoin="round"/>
<path d="M28.41 27.8766C29.1543 28.2183 29.9712 28.372 30.7888 28.324C31.6064 28.276 32.3997 28.028 33.099 27.6016C33.7983 27.1752 34.3821 26.5836 34.7992 25.8787C35.2162 25.1739 35.4538 24.3773 35.4909 23.5592C35.528 22.741 35.3636 21.9262 35.012 21.1865C34.6605 20.4468 34.1326 19.8047 33.4748 19.3168C32.817 18.8288 32.0495 18.51 31.2395 18.3882C30.4296 18.2664 29.6022 18.3454 28.83 18.6183" stroke="#4C04A9" stroke-width="2.75" stroke-linecap="round" stroke-linejoin="round"/>
</g>
<defs>
<clipPath id="clip0_110_363">
<rect width="40" height="40" fill="white" transform="translate(0.5)"/>
</clipPath>
</defs>
</svg>
