<svg width="41" height="40" viewBox="0 0 41 40" fill="none" xmlns="http://www.w3.org/2000/svg">
<g clip-path="url(#clip0_110_379)">
<path d="M27.1667 6.56167C24.245 5.11211 20.9305 4.65432 17.7253 5.25764C14.5201 5.86095 11.5988 7.49251 9.40413 9.90512C7.20944 12.3177 5.86089 15.3799 5.56279 18.6278C5.26469 21.8756 6.03328 25.1321 7.75213 27.9039C9.47097 30.6757 12.0464 32.8118 15.0882 33.9885C18.1301 35.1652 21.4725 35.3184 24.6093 34.4249C27.746 33.5314 30.506 31.6399 32.4712 29.037C34.4364 26.434 35.4997 23.2615 35.5 20" stroke="#4C04A9" stroke-width="2.75" stroke-linecap="round" stroke-linejoin="round"/>
<path d="M18.8333 20C18.8333 20.442 19.0089 20.8659 19.3215 21.1785C19.634 21.4911 20.058 21.6666 20.5 21.6666C20.942 21.6666 21.3659 21.4911 21.6785 21.1785C21.9911 20.8659 22.1667 20.442 22.1667 20C22.1667 19.558 21.9911 19.134 21.6785 18.8215C21.3659 18.5089 20.942 18.3333 20.5 18.3333C20.058 18.3333 19.634 18.5089 19.3215 18.8215C19.0089 19.134 18.8333 19.558 18.8333 20Z" stroke="#4C04A9" stroke-width="2.75" stroke-linecap="round" stroke-linejoin="round"/>
<path d="M32.1667 6.66667C32.1667 7.10869 32.3423 7.53262 32.6548 7.84518C32.9674 8.15774 33.3913 8.33333 33.8333 8.33333C34.2754 8.33333 34.6993 8.15774 35.0119 7.84518C35.3244 7.53262 35.5 7.10869 35.5 6.66667C35.5 6.22464 35.3244 5.80072 35.0119 5.48816C34.6993 5.17559 34.2754 5 33.8333 5C33.3913 5 32.9674 5.17559 32.6548 5.48816C32.3423 5.80072 32.1667 6.22464 32.1667 6.66667Z" stroke="#4C04A9" stroke-width="2.75" stroke-linecap="round" stroke-linejoin="round"/>
<path d="M33.8333 6.66666L28 23.3333L23.8333 26.6667" stroke="#4C04A9" stroke-width="2.75" stroke-linecap="round" stroke-linejoin="round"/>
</g>
<defs>
<clipPath id="clip0_110_379">
<rect width="40" height="40" fill="white" transform="translate(0.5)"/>
</clipPath>
</defs>
</svg>
