<svg width="40" height="40" viewBox="0 0 40 40" fill="none" xmlns="http://www.w3.org/2000/svg">
<g clip-path="url(#clip0_110_370)">
<path d="M3.33333 20H5" stroke="#4C04A9" stroke-width="2.75" stroke-linecap="round" stroke-linejoin="round"/>
<path d="M10 13.3333H6.66667C6.22464 13.3333 5.80072 13.5089 5.48816 13.8215C5.17559 14.1341 5 14.558 5 15V25C5 25.442 5.17559 25.866 5.48816 26.1785C5.80072 26.4911 6.22464 26.6667 6.66667 26.6667H10" stroke="#4C04A9" stroke-width="2.75" stroke-linecap="round" stroke-linejoin="round"/>
<path d="M10 11.6667V28.3333C10 28.7754 10.1756 29.1993 10.4882 29.5118C10.8007 29.8244 11.2246 30 11.6667 30H13.3333C13.7754 30 14.1993 29.8244 14.5118 29.5118C14.8244 29.1993 15 28.7754 15 28.3333V11.6667C15 11.2246 14.8244 10.8007 14.5118 10.4882C14.1993 10.1756 13.7754 10 13.3333 10H11.6667C11.2246 10 10.8007 10.1756 10.4882 10.4882C10.1756 10.8007 10 11.2246 10 11.6667Z" stroke="#4C04A9" stroke-width="2.75" stroke-linecap="round" stroke-linejoin="round"/>
<path d="M15 20H25" stroke="#4C04A9" stroke-width="2.75" stroke-linecap="round" stroke-linejoin="round"/>
<path d="M25 11.6667V28.3333C25 28.7754 25.1756 29.1993 25.4882 29.5118C25.8007 29.8244 26.2246 30 26.6667 30H28.3333C28.7754 30 29.1993 29.8244 29.5118 29.5118C29.8244 29.1993 30 28.7754 30 28.3333V11.6667C30 11.2246 29.8244 10.8007 29.5118 10.4882C29.1993 10.1756 28.7754 10 28.3333 10H26.6667C26.2246 10 25.8007 10.1756 25.4882 10.4882C25.1756 10.8007 25 11.2246 25 11.6667Z" stroke="#4C04A9" stroke-width="2.75" stroke-linecap="round" stroke-linejoin="round"/>
<path d="M30 13.3333H33.3333C33.7754 13.3333 34.1993 13.5089 34.5118 13.8215C34.8244 14.1341 35 14.558 35 15V25C35 25.442 34.8244 25.866 34.5118 26.1785C34.1993 26.4911 33.7754 26.6667 33.3333 26.6667H30" stroke="#4C04A9" stroke-width="2.75" stroke-linecap="round" stroke-linejoin="round"/>
<path d="M36.6667 20H35" stroke="#4C04A9" stroke-width="2.75" stroke-linecap="round" stroke-linejoin="round"/>
</g>
<defs>
<clipPath id="clip0_110_370">
<rect width="40" height="40" fill="white"/>
</clipPath>
</defs>
</svg>
