<svg width="40" height="40" viewBox="0 0 40 40" fill="none" xmlns="http://www.w3.org/2000/svg">
<g clip-path="url(#clip0_110_385)">
<path d="M20 21.6666L16.6667 18.3333" stroke="#4C04A9" stroke-width="2.75" stroke-linecap="round" stroke-linejoin="round"/>
<path d="M20 20L23.3333 16.6667" stroke="#4C04A9" stroke-width="2.75" stroke-linecap="round" stroke-linejoin="round"/>
<path d="M20 35V13.3333" stroke="#4C04A9" stroke-width="2.75" stroke-linecap="round" stroke-linejoin="round"/>
<path d="M16.3733 26.6667C15.6441 26.624 14.9331 26.422 14.2903 26.075C13.6476 25.728 13.0886 25.2444 12.6528 24.6581C12.2171 24.0719 11.915 23.3973 11.768 22.6818C11.6209 21.9663 11.6324 21.2272 11.8017 20.5167C11.1975 20.0135 10.7204 19.3749 10.4093 18.6528C10.0982 17.9307 9.96181 17.1453 10.0112 16.3606C10.0605 15.5759 10.2943 14.8138 10.6934 14.1364C11.0926 13.4589 11.6458 12.8852 12.3083 12.4617C11.7273 11.4294 11.5316 10.2244 11.7561 9.06134C11.9806 7.89827 12.6108 6.85269 13.5343 6.11088C14.4578 5.36907 15.6147 4.97923 16.7988 5.01081C17.9829 5.04239 19.1174 5.49335 20 6.28333C20.8829 5.4946 22.0169 5.04471 23.2004 5.01374C24.3838 4.98278 25.5399 5.37273 26.4628 6.11421C27.3857 6.85569 28.0156 7.90058 28.2403 9.06291C28.465 10.2252 28.27 11.4296 27.69 12.4617C28.3526 12.885 28.906 13.4587 29.3053 14.136C29.7046 14.8134 29.9385 15.5754 29.9881 16.3602C30.0376 17.1449 29.9013 17.9303 29.5904 18.6525C29.2794 19.3747 28.8025 20.0134 28.1983 20.5167C28.3733 21.2513 28.3796 22.0161 28.2167 22.7535C28.0538 23.4909 27.7259 24.1819 27.2578 24.7745C26.7897 25.3671 26.1934 25.8459 25.5137 26.1751C24.834 26.5042 24.0885 26.6751 23.3333 26.675H16.6667L16.3733 26.6667Z" stroke="#4C04A9" stroke-width="2.75" stroke-linecap="round" stroke-linejoin="round"/>
</g>
<defs>
<clipPath id="clip0_110_385">
<rect width="40" height="40" fill="white"/>
</clipPath>
</defs>
</svg>
