<svg width="108" height="28" viewBox="0 0 108 28" fill="none" xmlns="http://www.w3.org/2000/svg">
<circle cx="8.44105" cy="8.44105" r="8.44105" fill="#4C04A9"/>
<path d="M0 8.37854H13.1305L0 27.1364V8.37854Z" fill="#4C04A9"/>
<ellipse cx="8.44109" cy="8.45811" rx="4.05284" ry="3.87663" fill="white"/>
<path d="M26.6838 19.1718V7.33044H31.0651C32.0124 7.33044 32.7962 7.48832 33.4165 7.80409C34.0367 8.11986 34.4991 8.55404 34.8036 9.10664C35.1081 9.65924 35.2603 10.2795 35.2603 10.9674C35.2603 11.6215 35.1137 12.2249 34.8205 12.7775C34.5273 13.3188 34.0706 13.7586 33.4503 14.0969C32.83 14.424 32.035 14.5875 31.0651 14.5875H28.8491V19.1718H26.6838ZM28.8491 12.8282H30.9298C31.6854 12.8282 32.2267 12.6647 32.5537 12.3376C32.8921 11.9993 33.0612 11.5426 33.0612 10.9674C33.0612 10.381 32.8921 9.92426 32.5537 9.59721C32.2267 9.25888 31.6854 9.08972 30.9298 9.08972H28.8491V12.8282ZM40.5049 19.3748C39.6929 19.3748 38.9599 19.1887 38.3058 18.8165C37.663 18.4444 37.1498 17.9313 36.7664 17.2772C36.3942 16.6118 36.2082 15.8449 36.2082 14.9766C36.2082 14.1082 36.3999 13.347 36.7833 12.6929C37.1667 12.0275 37.6799 11.5087 38.3227 11.1366C38.9768 10.7644 39.7098 10.5783 40.5218 10.5783C41.3225 10.5783 42.0443 10.7644 42.6871 11.1366C43.3412 11.5087 43.8543 12.0275 44.2264 12.6929C44.6099 13.347 44.8016 14.1082 44.8016 14.9766C44.8016 15.8449 44.6099 16.6118 44.2264 17.2772C43.8543 17.9313 43.3412 18.4444 42.6871 18.8165C42.033 19.1887 41.3056 19.3748 40.5049 19.3748ZM40.5049 17.4971C41.0688 17.4971 41.5593 17.2884 41.9766 16.8712C42.3939 16.4426 42.6025 15.8111 42.6025 14.9766C42.6025 14.142 42.3939 13.5161 41.9766 13.0989C41.5593 12.6703 41.0744 12.456 40.5218 12.456C39.9466 12.456 39.4504 12.6703 39.0332 13.0989C38.6272 13.5161 38.4242 14.142 38.4242 14.9766C38.4242 15.8111 38.6272 16.4426 39.0332 16.8712C39.4504 17.2884 39.941 17.4971 40.5049 17.4971ZM46.7376 22.8933V10.7813H48.666L48.9029 11.9824C49.1735 11.6102 49.5288 11.2832 49.9686 11.0013C50.4197 10.7193 51.0005 10.5783 51.7109 10.5783C52.5004 10.5783 53.2052 10.7701 53.8255 11.1535C54.4457 11.5369 54.9363 12.0613 55.2972 12.7267C55.6581 13.3921 55.8385 14.1477 55.8385 14.9935C55.8385 15.8393 55.6581 16.5949 55.2972 17.2603C54.9363 17.9143 54.4457 18.4331 53.8255 18.8165C53.2052 19.1887 52.5004 19.3748 51.7109 19.3748C51.0794 19.3748 50.5268 19.2564 50.0532 19.0195C49.5795 18.7827 49.1961 18.45 48.9029 18.0215V22.8933H46.7376ZM51.2542 17.4802C51.9421 17.4802 52.5116 17.249 52.9627 16.7866C53.4138 16.3242 53.6394 15.7265 53.6394 14.9935C53.6394 14.2604 53.4138 13.6571 52.9627 13.1834C52.5116 12.7098 51.9421 12.473 51.2542 12.473C50.555 12.473 49.9799 12.7098 49.5288 13.1834C49.0889 13.6458 48.869 14.2435 48.869 14.9766C48.869 15.7096 49.0889 16.3129 49.5288 16.7866C49.9799 17.249 50.555 17.4802 51.2542 17.4802ZM65.8973 19.3748C65.0289 19.3748 64.2621 19.2282 63.5967 18.935C62.9313 18.6305 62.4069 18.2019 62.0235 17.6493C61.6401 17.0855 61.4427 16.4032 61.4314 15.6025H63.7151C63.7377 16.1551 63.935 16.6231 64.3072 17.0065C64.6906 17.3787 65.215 17.5647 65.8804 17.5647C66.4555 17.5647 66.9123 17.4294 67.2506 17.1588C67.5889 16.8768 67.7581 16.5047 67.7581 16.0423C67.7581 15.5574 67.6058 15.1796 67.3013 14.9089C67.0081 14.6382 66.6134 14.4183 66.1172 14.2492C65.621 14.08 65.091 13.8996 64.5271 13.7078C63.6136 13.3921 62.9144 12.9861 62.4295 12.4899C61.9558 11.9937 61.719 11.3339 61.719 10.5107C61.7077 9.81148 61.8712 9.21378 62.2096 8.71757C62.5592 8.21008 63.0328 7.82101 63.6305 7.55035C64.2282 7.26841 64.9162 7.12744 65.6943 7.12744C66.4837 7.12744 67.1773 7.26841 67.775 7.55035C68.384 7.83228 68.8576 8.227 69.196 8.73448C69.5456 9.24197 69.7316 9.84531 69.7542 10.5445H67.4367C67.4254 10.1272 67.2619 9.76073 66.9461 9.44496C66.6416 9.11792 66.2131 8.95439 65.6605 8.95439C65.1868 8.94312 64.7865 9.06153 64.4594 9.30963C64.1437 9.54646 63.9858 9.89606 63.9858 10.3584C63.9858 10.7531 64.1098 11.0689 64.3579 11.3057C64.606 11.5313 64.9444 11.723 65.3729 11.8809C65.8014 12.0388 66.292 12.2079 66.8446 12.3884C67.431 12.5914 67.9667 12.8282 68.4516 13.0989C68.9366 13.3695 69.3257 13.7304 69.6189 14.1815C69.9121 14.6213 70.0587 15.1908 70.0587 15.89C70.0587 16.5103 69.9008 17.0855 69.585 17.6155C69.2693 18.1455 68.8013 18.5741 68.181 18.9011C67.5607 19.2169 66.7995 19.3748 65.8973 19.3748ZM71.8971 22.8933V10.7813H73.8256L74.0624 11.9824C74.3331 11.6102 74.6883 11.2832 75.1281 11.0013C75.5792 10.7193 76.16 10.5783 76.8705 10.5783C77.6599 10.5783 78.3648 10.7701 78.985 11.1535C79.6053 11.5369 80.0959 12.0613 80.4567 12.7267C80.8176 13.3921 80.9981 14.1477 80.9981 14.9935C80.9981 15.8393 80.8176 16.5949 80.4567 17.2603C80.0959 17.9143 79.6053 18.4331 78.985 18.8165C78.3648 19.1887 77.6599 19.3748 76.8705 19.3748C76.239 19.3748 75.6864 19.2564 75.2127 19.0195C74.7391 18.7827 74.3556 18.45 74.0624 18.0215V22.8933H71.8971ZM76.4138 17.4802C77.1017 17.4802 77.6712 17.249 78.1223 16.7866C78.5734 16.3242 78.799 15.7265 78.799 14.9935C78.799 14.2604 78.5734 13.6571 78.1223 13.1834C77.6712 12.7098 77.1017 12.473 76.4138 12.473C75.7146 12.473 75.1394 12.7098 74.6883 13.1834C74.2485 13.6458 74.0286 14.2435 74.0286 14.9766C74.0286 15.7096 74.2485 16.3129 74.6883 16.7866C75.1394 17.249 75.7146 17.4802 76.4138 17.4802ZM86.9584 19.3748C86.1464 19.3748 85.4134 19.1887 84.7593 18.8165C84.1165 18.4444 83.6033 17.9313 83.2199 17.2772C82.8477 16.6118 82.6617 15.8449 82.6617 14.9766C82.6617 14.1082 82.8534 13.347 83.2368 12.6929C83.6202 12.0275 84.1334 11.5087 84.7762 11.1366C85.4303 10.7644 86.1633 10.5783 86.9753 10.5783C87.776 10.5783 88.4978 10.7644 89.1406 11.1366C89.7947 11.5087 90.3078 12.0275 90.6799 12.6929C91.0634 13.347 91.2551 14.1082 91.2551 14.9766C91.2551 15.8449 91.0634 16.6118 90.6799 17.2772C90.3078 17.9313 89.7947 18.4444 89.1406 18.8165C88.4865 19.1887 87.7591 19.3748 86.9584 19.3748ZM86.9584 17.4971C87.5222 17.4971 88.0128 17.2884 88.4301 16.8712C88.8474 16.4426 89.056 15.8111 89.056 14.9766C89.056 14.142 88.8474 13.5161 88.4301 13.0989C88.0128 12.6703 87.5279 12.456 86.9753 12.456C86.4001 12.456 85.9039 12.6703 85.4867 13.0989C85.0807 13.5161 84.8777 14.142 84.8777 14.9766C84.8777 15.8111 85.0807 16.4426 85.4867 16.8712C85.9039 17.2884 86.3945 17.4971 86.9584 17.4971ZM96.5992 19.1718C95.7195 19.1718 95.0147 18.9575 94.4846 18.529C93.9546 18.1004 93.6896 17.3392 93.6896 16.2453V12.5914H92.2517V10.7813H93.6896L93.9433 8.53149H95.8548V10.7813H98.1216V12.5914H95.8548V16.2622C95.8548 16.6682 95.9394 16.9501 96.1086 17.108C96.289 17.2546 96.5935 17.3279 97.0221 17.3279H98.0709V19.1718H96.5992ZM103.449 19.3748C102.704 19.3748 102.05 19.2564 101.486 19.0195C100.922 18.7714 100.471 18.4331 100.133 18.0046C99.7946 17.576 99.5916 17.0798 99.5239 16.5159H101.706C101.774 16.843 101.954 17.1249 102.247 17.3617C102.552 17.5873 102.941 17.7001 103.415 17.7001C103.888 17.7001 104.232 17.6042 104.447 17.4125C104.672 17.2208 104.785 17.0009 104.785 16.7528C104.785 16.3919 104.627 16.1494 104.311 16.0254C103.995 15.89 103.556 15.7603 102.992 15.6363C102.631 15.5574 102.264 15.4615 101.892 15.3487C101.52 15.2359 101.176 15.095 100.86 14.9258C100.556 14.7454 100.308 14.5198 100.116 14.2492C99.9243 13.9672 99.8284 13.6233 99.8284 13.2173C99.8284 12.473 100.122 11.8471 100.708 11.3396C101.306 10.8321 102.14 10.5783 103.212 10.5783C104.204 10.5783 104.994 10.8095 105.58 11.2719C106.178 11.7343 106.533 12.3715 106.646 13.1834H104.599C104.475 12.5632 104.007 12.2531 103.195 12.2531C102.789 12.2531 102.473 12.332 102.247 12.4899C102.033 12.6478 101.926 12.8451 101.926 13.0819C101.926 13.3301 102.09 13.5274 102.417 13.674C102.744 13.8206 103.178 13.956 103.719 14.08C104.306 14.2153 104.841 14.3676 105.326 14.5367C105.822 14.6946 106.217 14.9371 106.51 15.2641C106.804 15.5799 106.95 16.0366 106.95 16.6344C106.961 17.1531 106.826 17.6211 106.544 18.0384C106.262 18.4557 105.856 18.7827 105.326 19.0195C104.796 19.2564 104.17 19.3748 103.449 19.3748Z" fill="#4C04A9"/>
</svg>
