<svg width="129" height="33" viewBox="0 0 129 33" fill="none" xmlns="http://www.w3.org/2000/svg">
<path fill-rule="evenodd" clip-rule="evenodd" d="M20.1647 10.0824C20.1647 15.6507 15.6507 20.1647 10.0824 20.1647C9.59435 20.1647 9.11442 20.1301 8.64493 20.063L0 32.4129V10.0824L0.000270805 10.0077C0.0404162 4.47372 4.53894 0 10.0824 0C15.6507 0 20.1647 4.51403 20.1647 10.0824ZM10.0824 14.7332C12.7559 14.7332 14.9233 12.66 14.9233 10.1027C14.9233 7.54542 12.7559 5.47231 10.0824 5.47231C7.40883 5.47231 5.24149 7.54542 5.24149 10.1027C5.24149 12.66 7.40883 14.7332 10.0824 14.7332Z" fill="#4C04A9"/>
<path d="M31.8723 22.7885V8.6447H37.1055C38.237 8.6447 39.1732 8.83328 39.9141 9.21045C40.655 9.58762 41.2073 10.1062 41.5709 10.7663C41.9346 11.4263 42.1165 12.1672 42.1165 12.9889C42.1165 13.7702 41.9414 14.4908 41.5912 15.1509C41.2409 15.7974 40.6954 16.3228 39.9545 16.7269C39.2136 17.1175 38.264 17.3128 37.1055 17.3128H34.4586V22.7885H31.8723ZM34.4586 15.2115H36.9439C37.8464 15.2115 38.493 15.0162 38.8836 14.6255C39.2877 14.2214 39.4898 13.6759 39.4898 12.9889C39.4898 12.2884 39.2877 11.7429 38.8836 11.3522C38.493 10.9481 37.8464 10.7461 36.9439 10.7461H34.4586V15.2115ZM48.3808 23.031C47.411 23.031 46.5354 22.8087 45.7541 22.3642C44.9863 21.9197 44.3734 21.3068 43.9154 20.5255C43.4709 19.7308 43.2486 18.8148 43.2486 17.7776C43.2486 16.7404 43.4776 15.8311 43.9356 15.0498C44.3936 14.2551 45.0065 13.6355 45.7743 13.1909C46.5556 12.7464 47.4312 12.5241 48.401 12.5241C49.3574 12.5241 50.2195 12.7464 50.9873 13.1909C51.7686 13.6355 52.3815 14.2551 52.826 15.0498C53.284 15.8311 53.513 16.7404 53.513 17.7776C53.513 18.8148 53.284 19.7308 52.826 20.5255C52.3815 21.3068 51.7686 21.9197 50.9873 22.3642C50.2061 22.8087 49.3372 23.031 48.3808 23.031ZM48.3808 20.7882C49.0543 20.7882 49.6403 20.539 50.1387 20.0406C50.6371 19.5287 50.8863 18.7744 50.8863 17.7776C50.8863 16.7808 50.6371 16.0332 50.1387 15.5348C49.6403 15.0229 49.0611 14.767 48.401 14.767C47.714 14.767 47.1214 15.0229 46.6229 15.5348C46.138 16.0332 45.8956 16.7808 45.8956 17.7776C45.8956 18.7744 46.138 19.5287 46.6229 20.0406C47.1214 20.539 47.7073 20.7882 48.3808 20.7882ZM55.8254 27.2337V12.7666H58.1289L58.4117 14.2012C58.735 13.7567 59.1593 13.366 59.6847 13.0293C60.2235 12.6925 60.9172 12.5241 61.7658 12.5241C62.7088 12.5241 63.5507 12.7531 64.2915 13.2111C65.0324 13.6691 65.6184 14.2955 66.0494 15.0902C66.4805 15.885 66.696 16.7875 66.696 17.7978C66.696 18.8081 66.4805 19.7106 66.0494 20.5053C65.6184 21.2866 65.0324 21.9062 64.2915 22.3642C63.5507 22.8087 62.7088 23.031 61.7658 23.031C61.0115 23.031 60.3515 22.8896 59.7857 22.6067C59.22 22.3238 58.762 21.9264 58.4117 21.4146V27.2337H55.8254ZM61.2203 20.768C62.042 20.768 62.7222 20.4918 63.261 19.9396C63.7999 19.3873 64.0693 18.6733 64.0693 17.7978C64.0693 16.9222 63.7999 16.2015 63.261 15.6358C62.7222 15.07 62.042 14.7872 61.2203 14.7872C60.3851 14.7872 59.6981 15.07 59.1593 15.6358C58.634 16.1881 58.3713 16.902 58.3713 17.7776C58.3713 18.6531 58.634 19.3738 59.1593 19.9396C59.6981 20.4918 60.3851 20.768 61.2203 20.768ZM73.8961 23.031C72.8589 23.031 71.9429 22.8559 71.1481 22.5057C70.3534 22.142 69.727 21.6301 69.269 20.97C68.811 20.2965 68.5753 19.4816 68.5618 18.5252H71.2896C71.3165 19.1852 71.5522 19.7442 71.9968 20.2022C72.4547 20.6467 73.0811 20.869 73.8759 20.869C74.5628 20.869 75.1084 20.7074 75.5125 20.3841C75.9166 20.0473 76.1187 19.6028 76.1187 19.0505C76.1187 18.4713 75.9368 18.02 75.5731 17.6968C75.2229 17.3735 74.7514 17.1108 74.1587 16.9087C73.566 16.7067 72.9329 16.4912 72.2594 16.2622C71.1683 15.885 70.3332 15.4001 69.7539 14.8074C69.1882 14.2147 68.9053 13.4267 68.9053 12.4433C68.8918 11.6082 69.0872 10.8942 69.4913 10.3015C69.9089 9.69538 70.4746 9.23066 71.1885 8.90737C71.9025 8.57061 72.7242 8.40223 73.6536 8.40223C74.5965 8.40223 75.4249 8.57061 76.1389 8.90737C76.8663 9.24413 77.432 9.71559 77.8361 10.3218C78.2537 10.9279 78.476 11.6486 78.5029 12.4837H75.7348C75.7213 11.9853 75.526 11.5476 75.1488 11.1704C74.7851 10.7797 74.2732 10.5844 73.6132 10.5844C73.0474 10.571 72.5692 10.7124 72.1786 11.0087C71.8014 11.2916 71.6129 11.7092 71.6129 12.2615C71.6129 12.7329 71.761 13.1101 72.0574 13.393C72.3537 13.6624 72.7578 13.8914 73.2697 14.08C73.7816 14.2686 74.3675 14.4706 75.0276 14.6861C75.728 14.9286 76.3679 15.2115 76.9471 15.5348C77.5263 15.8581 77.991 16.2891 78.3413 16.8279C78.6915 17.3533 78.8666 18.0335 78.8666 18.8687C78.8666 19.6095 78.678 20.2965 78.3009 20.9296C77.9237 21.5627 77.3647 22.0746 76.6238 22.4652C75.8829 22.8424 74.9737 23.031 73.8961 23.031ZM81.0625 27.2337V12.7666H83.366L83.6488 14.2012C83.9721 13.7567 84.3964 13.366 84.9218 13.0293C85.4606 12.6925 86.1543 12.5241 87.0029 12.5241C87.9459 12.5241 88.7878 12.7531 89.5286 13.2111C90.2695 13.6691 90.8555 14.2955 91.2865 15.0902C91.7176 15.885 91.9331 16.7875 91.9331 17.7978C91.9331 18.8081 91.7176 19.7106 91.2865 20.5053C90.8555 21.2866 90.2695 21.9062 89.5286 22.3642C88.7878 22.8087 87.9459 23.031 87.0029 23.031C86.2486 23.031 85.5886 22.8896 85.0228 22.6067C84.4571 22.3238 83.9991 21.9264 83.6488 21.4146V27.2337H81.0625ZM86.4574 20.768C87.2791 20.768 87.9593 20.4918 88.4982 19.9396C89.037 19.3873 89.3064 18.6733 89.3064 17.7978C89.3064 16.9222 89.037 16.2015 88.4982 15.6358C87.9593 15.07 87.2791 14.7872 86.4574 14.7872C85.6222 14.7872 84.9353 15.07 84.3964 15.6358C83.8711 16.1881 83.6084 16.902 83.6084 17.7776C83.6084 18.6531 83.8711 19.3738 84.3964 19.9396C84.9353 20.4918 85.6222 20.768 86.4574 20.768ZM99.0524 23.031C98.0825 23.031 97.2069 22.8087 96.4256 22.3642C95.6578 21.9197 95.0449 21.3068 94.5869 20.5255C94.1424 19.7308 93.9202 18.8148 93.9202 17.7776C93.9202 16.7404 94.1492 15.8311 94.6071 15.0498C95.0651 14.2551 95.678 13.6355 96.4458 13.1909C97.2271 12.7464 98.1027 12.5241 99.0726 12.5241C100.029 12.5241 100.891 12.7464 101.659 13.1909C102.44 13.6355 103.053 14.2551 103.498 15.0498C103.956 15.8311 104.185 16.7404 104.185 17.7776C104.185 18.8148 103.956 19.7308 103.498 20.5255C103.053 21.3068 102.44 21.9197 101.659 22.3642C100.878 22.8087 100.009 23.031 99.0524 23.031ZM99.0524 20.7882C99.7259 20.7882 100.312 20.539 100.81 20.0406C101.309 19.5287 101.558 18.7744 101.558 17.7776C101.558 16.7808 101.309 16.0332 100.81 15.5348C100.312 15.0229 99.7326 14.767 99.0726 14.767C98.3856 14.767 97.7929 15.0229 97.2945 15.5348C96.8095 16.0332 96.5671 16.7808 96.5671 17.7776C96.5671 18.7744 96.8095 19.5287 97.2945 20.0406C97.7929 20.539 98.3788 20.7882 99.0524 20.7882ZM110.568 22.7885C109.517 22.7885 108.675 22.5326 108.042 22.0207C107.409 21.5088 107.092 20.5996 107.092 19.293V14.9286H105.375V12.7666H107.092L107.395 10.0793H109.679V12.7666H112.386V14.9286H109.679V19.3132C109.679 19.7981 109.78 20.1349 109.982 20.3235C110.197 20.4986 110.561 20.5861 111.073 20.5861H112.326V22.7885H110.568ZM118.749 23.031C117.86 23.031 117.079 22.8896 116.405 22.6067C115.732 22.3103 115.193 21.9062 114.789 21.3944C114.385 20.8825 114.142 20.2898 114.061 19.6163H116.668C116.749 20.0069 116.964 20.3437 117.314 20.6265C117.678 20.8959 118.143 21.0307 118.708 21.0307C119.274 21.0307 119.685 20.9162 119.941 20.6872C120.21 20.4582 120.345 20.1955 120.345 19.8991C120.345 19.4681 120.157 19.1785 119.779 19.0303C119.402 18.8687 118.877 18.7138 118.203 18.5656C117.772 18.4713 117.335 18.3568 116.89 18.2221C116.445 18.0874 116.035 17.919 115.657 17.717C115.294 17.5014 114.997 17.232 114.768 16.9087C114.539 16.572 114.425 16.1611 114.425 15.6762C114.425 14.7872 114.775 14.0396 115.476 13.4334C116.19 12.8272 117.186 12.5241 118.466 12.5241C119.651 12.5241 120.594 12.8003 121.295 13.3526C122.009 13.9049 122.433 14.6659 122.568 15.6358H120.123C119.975 14.8949 119.416 14.5245 118.446 14.5245C117.961 14.5245 117.584 14.6188 117.314 14.8074C117.058 14.996 116.93 15.2317 116.93 15.5146C116.93 15.8109 117.126 16.0466 117.516 16.2218C117.907 16.3969 118.426 16.5585 119.072 16.7067C119.773 16.8683 120.412 17.0502 120.992 17.2522C121.584 17.4408 122.056 17.7304 122.406 18.1211C122.756 18.4982 122.931 19.0438 122.931 19.7577C122.945 20.3773 122.783 20.9364 122.446 21.4348C122.11 21.9332 121.625 22.3238 120.992 22.6067C120.359 22.8896 119.611 23.031 118.749 23.031Z" fill="#4C04A9"/>
</svg>
