<svg width="40" height="40" viewBox="0 0 40 40" fill="none" xmlns="http://www.w3.org/2000/svg">
<g clip-path="url(#clip0_110_333)">
<path d="M20 5C23.1967 5 25.8667 7.25 26.5167 10.2517C28.2236 9.78975 30.044 10.0248 31.5776 10.9051C33.1112 11.7855 34.2322 13.2389 34.6942 14.9458C35.1561 16.6527 34.921 18.4732 34.0407 20.0068C33.1604 21.5404 31.7069 22.6614 30 23.1233V35H10V23.1233C9.15483 22.8944 8.36304 22.5012 7.66982 21.9663C6.9766 21.4313 6.39553 20.7651 5.95979 20.0056C5.52405 19.2461 5.24217 18.4082 5.13025 17.5398C5.01833 16.6713 5.07856 15.7893 5.3075 14.9442C5.53644 14.099 5.9296 13.3072 6.46454 12.614C6.99948 11.9208 7.66573 11.3397 8.42523 10.904C9.18474 10.4682 10.0226 10.1863 10.8911 10.0744C11.7595 9.9625 12.6415 10.0227 13.4867 10.2517C13.8097 8.76428 14.632 7.43222 15.8169 6.47685C17.0018 5.52148 18.4779 5.00033 20 5Z" stroke="#4C04A9" stroke-width="2.75" stroke-linecap="round" stroke-linejoin="round"/>
<path d="M10.2683 28.3483L30 28.3333" stroke="#4C04A9" stroke-width="2.75" stroke-linecap="round" stroke-linejoin="round"/>
</g>
<defs>
<clipPath id="clip0_110_333">
<rect width="40" height="40" fill="white"/>
</clipPath>
</defs>
</svg>
