<svg width="10" height="12" viewBox="0 0 10 12" fill="none" xmlns="http://www.w3.org/2000/svg">
<path d="M2.3335 2.66667C2.3335 3.37391 2.61445 4.05219 3.11454 4.55228C3.61464 5.05238 4.29292 5.33333 5.00016 5.33333C5.70741 5.33333 6.38568 5.05238 6.88578 4.55228C7.38588 4.05219 7.66683 3.37391 7.66683 2.66667C7.66683 1.95942 7.38588 1.28115 6.88578 0.781048C6.38568 0.280951 5.70741 0 5.00016 0C4.29292 0 3.61464 0.280951 3.11454 0.781048C2.61445 1.28115 2.3335 1.95942 2.3335 2.66667Z" fill="#3C0580"/>
<path d="M0 12V9.66667C0 8.95942 0.280951 8.28115 0.781049 7.78105C1.28115 7.28095 1.95942 7 2.66667 7H7.33333C8.04058 7 8.71885 7.28095 9.21895 7.78105C9.71905 8.28115 10 8.95942 10 9.66667V12" fill="#3C0580"/>
</svg>
