<svg width="11" height="10" viewBox="0 0 11 10" fill="none" xmlns="http://www.w3.org/2000/svg">
<path d="M3.44697 3.01901L0.407944 3.45962L0.354118 3.47058C0.272635 3.49221 0.198353 3.53508 0.138857 3.59481C0.0793614 3.65453 0.0367836 3.72898 0.0154716 3.81055C-0.00584033 3.89212 -0.00512275 3.97788 0.017551 4.05908C0.0402248 4.14028 0.0840424 4.214 0.144529 4.27273L2.34616 6.41577L1.82695 9.44289L1.82076 9.49528C1.81577 9.57956 1.83327 9.66365 1.87147 9.73893C1.90966 9.81422 1.96718 9.87801 2.03813 9.92376C2.10908 9.96951 2.19091 9.99558 2.27525 9.9993C2.3596 10.003 2.44341 9.98427 2.51812 9.94495L5.23609 8.51594L7.94788 9.94495L7.99551 9.96686C8.07414 9.99783 8.15959 10.0073 8.24309 9.99437C8.3266 9.98142 8.40516 9.94648 8.4707 9.89315C8.53625 9.83982 8.58644 9.77001 8.6161 9.69089C8.64577 9.61176 8.65385 9.52617 8.63952 9.44289L8.11984 6.41577L10.3224 4.27225L10.3596 4.23176C10.4126 4.16639 10.4474 4.08812 10.4604 4.00493C10.4734 3.92173 10.4641 3.83658 10.4334 3.75816C10.4028 3.67973 10.3519 3.61082 10.286 3.55847C10.22 3.50611 10.1414 3.47217 10.0581 3.4601L7.01902 3.01901L5.66051 0.265781C5.6212 0.186011 5.56035 0.118839 5.48483 0.0718668C5.40932 0.024895 5.32217 0 5.23324 0C5.14431 0 5.05715 0.024895 4.98164 0.0718668C4.90613 0.118839 4.84527 0.186011 4.80596 0.265781L3.44697 3.01901Z" fill="#3C0580"/>
</svg>
