<svg width="13" height="12" viewBox="0 0 13 12" fill="none" xmlns="http://www.w3.org/2000/svg">
<path d="M6.01798 0.884975C6.15292 0.395484 6.84708 0.395482 6.98202 0.884974L7.89282 4.18886C7.95485 4.41385 8.16427 4.56601 8.39742 4.55547L11.821 4.40074C12.3283 4.37781 12.5428 5.03799 12.119 5.31759L9.25823 7.20477C9.06341 7.33329 8.98342 7.57948 9.06549 7.79796L10.2706 11.0062C10.4492 11.4815 9.88757 11.8896 9.49069 11.5729L6.81186 9.43532C6.62943 9.28975 6.37057 9.28975 6.18814 9.43532L3.50932 11.5729C3.11243 11.8895 2.55084 11.4815 2.72939 11.0062L3.93451 7.79796C4.01658 7.57948 3.93659 7.33329 3.74177 7.20477L0.881047 5.31759C0.457212 5.03799 0.671716 4.37781 1.17895 4.40074L4.60258 4.55547C4.83573 4.56601 5.04515 4.41385 5.10718 4.18886L6.01798 0.884975Z" fill="#3C0580"/>
</svg>
