<svg width="41" height="40" viewBox="0 0 41 40" fill="none" xmlns="http://www.w3.org/2000/svg">
<g clip-path="url(#clip0_110_391)">
<path d="M7.16666 31.6666C7.16666 32.5507 7.51785 33.3985 8.14297 34.0237C8.76809 34.6488 9.61593 35 10.5 35C11.384 35 12.2319 34.6488 12.857 34.0237C13.4821 33.3985 13.8333 32.5507 13.8333 31.6666C13.8333 30.7826 13.4821 29.9347 12.857 29.3096C12.2319 28.6845 11.384 28.3333 10.5 28.3333C9.61593 28.3333 8.76809 28.6845 8.14297 29.3096C7.51785 29.9347 7.16666 30.7826 7.16666 31.6666Z" stroke="#4C04A9" stroke-width="2.75" stroke-linecap="round" stroke-linejoin="round"/>
<path d="M25.5 31.6666C25.5 32.5507 25.8512 33.3985 26.4763 34.0237C27.1014 34.6488 27.9493 35 28.8333 35C29.7174 35 30.5652 34.6488 31.1904 34.0237C31.8155 33.3985 32.1667 32.5507 32.1667 31.6666C32.1667 30.7826 31.8155 29.9347 31.1904 29.3096C30.5652 28.6845 29.7174 28.3333 28.8333 28.3333C27.9493 28.3333 27.1014 28.6845 26.4763 29.3096C25.8512 29.9347 25.5 30.7826 25.5 31.6666Z" stroke="#4C04A9" stroke-width="2.75" stroke-linecap="round" stroke-linejoin="round"/>
<path d="M28.8333 28.3333H10.5V5H7.16666" stroke="#4C04A9" stroke-width="2.75" stroke-linecap="round" stroke-linejoin="round"/>
<path d="M10.5 8.33334L33.8333 10L32.1667 21.6667H10.5" stroke="#4C04A9" stroke-width="2.75" stroke-linecap="round" stroke-linejoin="round"/>
</g>
<defs>
<clipPath id="clip0_110_391">
<rect width="40" height="40" fill="white" transform="translate(0.5)"/>
</clipPath>
</defs>
</svg>
