<svg width="41" height="40" viewBox="0 0 41 40" fill="none" xmlns="http://www.w3.org/2000/svg">
<g clip-path="url(#clip0_110_403)">
<path d="M13.8333 16.6667C13.8333 18.4348 14.5357 20.1305 15.786 21.3807C17.0362 22.631 18.7319 23.3333 20.5 23.3333C22.2681 23.3333 23.9638 22.631 25.2141 21.3807C26.4643 20.1305 27.1667 18.4348 27.1667 16.6667C27.1667 14.8986 26.4643 13.2029 25.2141 11.9526C23.9638 10.7024 22.2681 10 20.5 10C18.7319 10 17.0362 10.7024 15.786 11.9526C14.5357 13.2029 13.8333 14.8986 13.8333 16.6667Z" stroke="#4C04A9" stroke-width="2.75" stroke-linecap="round" stroke-linejoin="round"/>
<path d="M11.75 26.6667C13.1566 27.8884 14.8031 28.8024 16.5839 29.3499C18.3647 29.8975 20.2403 30.0665 22.0903 29.8461C23.9403 29.6256 25.7237 29.0207 27.326 28.07C28.9283 27.1194 30.314 25.8441 31.3941 24.3261C32.4742 22.8081 33.2249 21.0809 33.5978 19.2556C33.9708 17.4302 33.9578 15.547 33.5596 13.727C33.1615 11.907 32.3871 10.1903 31.2861 8.68738C30.1851 7.18444 28.7819 5.92841 27.1667 5" stroke="#4C04A9" stroke-width="2.75" stroke-linecap="round" stroke-linejoin="round"/>
<path d="M20.5 30V36.6667" stroke="#4C04A9" stroke-width="2.75" stroke-linecap="round" stroke-linejoin="round"/>
<path d="M13.8333 36.6667H27.1667" stroke="#4C04A9" stroke-width="2.75" stroke-linecap="round" stroke-linejoin="round"/>
</g>
<defs>
<clipPath id="clip0_110_403">
<rect width="40" height="40" fill="white" transform="translate(0.5)"/>
</clipPath>
</defs>
</svg>
